<svg fill="none" height="24" viewBox="0 0 24 24" width="24" xmlns="http://www.w3.org/2000/svg"><path d="m9.14715 10.845c.04699.4116.4187.7071.83024.6601.41151-.047.70711-.4187.66011-.8302zm4.19715-2.965-.2887.69221zm-10.61636-3.06057c-.09973-.40203-.50648-.6471-.90851-.54737s-.6471.50648-.54737.90851zm11.94716 7.55377c-.3733.1795-.5305.6276-.3511 1.0009.1795.3733.6276.5305 1.0009.3511zm2.5749 7.6268c0 .4142.3358.75.75.75s.75-.3358.75-.75zm-6.6125-9.3251c-.0658-.5764.086-1.37162.4728-1.86308.1791-.22767.397-.37777.6689-.43817.2782-.06179.6894-.0463 1.2764.19856l.5774-1.38442c-.7939-.33114-1.5253-.42366-2.179-.27845-.66.1466-1.1634.51848-1.52249.97481-.68981.87653-.88296 2.09726-.78436 2.96085zm2.4181-2.10269c.5774.24078.9464.74549 1.1077 1.49759.1646.7673.0919 1.7311-.1937 2.6977-.2847.9632-.762 1.865-1.3375 2.5112-.5816.653-1.1916.9713-1.7539.9713v1.5c1.1481 0 2.1331-.6417 2.8741-1.4737.7471-.8388 1.3199-1.947 1.6558-3.0838.3349-1.1334.453-2.3596.2219-3.43731-.2345-1.09289-.848-2.08819-1.997-2.5674zm-2.1774 7.67779c-.6359 0-1.3701-.2815-2.17155-.8816-.79668-.5965-1.60847-1.4707-2.38177-2.5541-1.54669-2.1671-2.87364-5.07904-3.59694-7.99487l-1.45588.36114c.76507 3.08417 2.1668 6.17223 3.8319 8.50513.8326 1.1666 1.74748 2.1674 2.70361 2.8834.95135.7124 1.99614 1.1809 3.07063 1.1809zm4.4467-2.5248c-.1436.069-.1517-.0504.0831.1238.2095.1553.4917.4711.7764.9943.5639 1.0359 1.0656 2.7547 1.0656 5.1567h1.5c0-2.598-.5408-4.5745-1.2481-5.8739-.3509-.6446-.7615-1.1565-1.2003-1.4819-.4135-.3066-1.0253-.5599-1.6265-.271z" fill="#141b34"/><g stroke="#141b34" stroke-linecap="round" stroke-linejoin="round" stroke-width="1.5"><path d="m7 6.36752c.87785-.95551 5.9941-4.67807 9.5986-.22994.4367.53888.655.80832 1.0282 1.86163s.3732 1.78573.3732 3.25059v8.7502"/><path d="m18 10c0-2.27283 1.2-5.37419 4-4.96297"/></g></svg>