<svg xmlns="http://www.w3.org/2000/svg"
	xmlns:xlink="http://www.w3.org/1999/xlink" x="0px" y="0px" viewBox="0 0 189 50" style="enable-background:new 0 0 189 50;" xml:space="preserve">
	<path style="fill:#CB935D;" d="M70.095,23.645c1.563,0,2.94,0.257,4.13,0.77c1.213,0.513,2.147,1.225,2.8,2.135
	c0.653,0.91,0.98,1.948,0.98,3.115c0,1.213-0.35,2.31-1.05,3.29c-0.7,0.98-1.668,1.762-2.905,2.345
	c-1.237,0.56-2.613,0.84-4.13,0.84c-0.653,0-1.4-0.035-2.24-0.105c-0.327-0.023-0.735-0.047-1.225-0.07
	c-0.467-0.023-0.992-0.035-1.575-0.035l-2.555,0.035C61.858,35.988,61.228,36,60.435,36c-0.07,0-0.105-0.07-0.105-0.21
	s0.035-0.21,0.105-0.21c0.677,0,1.19-0.058,1.54-0.175c0.35-0.14,0.595-0.373,0.735-0.7c0.163-0.35,0.245-0.863,0.245-1.54V16.96
	c0-0.98-0.163-1.622-0.49-1.925c-0.327-0.327-0.992-0.49-1.995-0.49c-0.047,0-0.07-0.07-0.07-0.21s0.023-0.21,0.07-0.21l1.855,0.035
	c1.073,0.047,1.925,0.07,2.555,0.07c0.653,0,1.33-0.035,2.03-0.105c0.233-0.023,0.583-0.047,1.05-0.07s0.875-0.035,1.225-0.035
	c2.123,0,3.768,0.385,4.935,1.155c1.167,0.77,1.75,1.89,1.75,3.36c0,1.353-0.537,2.555-1.61,3.605
	c-1.05,1.027-2.567,1.738-4.55,2.135L70.095,23.645z M68.66,14.79c-0.677,0-1.143,0.163-1.4,0.49
	c-0.257,0.303-0.385,0.887-0.385,1.75v6.86l-1.295-0.245c1.027,0.047,1.925,0.07,2.695,0.07c1.213,0,2.147-0.455,2.8-1.365
	c0.653-0.91,0.98-2.077,0.98-3.5c0-1.33-0.292-2.333-0.875-3.01C70.597,15.14,69.757,14.79,68.66,14.79z M69.325,35.265
	c3.057,0,4.585-1.587,4.585-4.76c0-1.797-0.432-3.22-1.295-4.27c-0.863-1.05-2.17-1.575-3.92-1.575c-1.143,0-2.135,0.07-2.975,0.21
	l1.155-0.42v8.715c0,0.77,0.152,1.318,0.455,1.645C67.633,35.113,68.298,35.265,69.325,35.265z M98.75,18.955
	c0.63-1.05,0.945-1.948,0.945-2.695c0-0.56-0.175-0.98-0.525-1.26c-0.327-0.303-0.805-0.455-1.435-0.455
	c-0.07,0-0.105-0.07-0.105-0.21s0.035-0.21,0.105-0.21l1.855,0.035c1.074,0.047,2.03,0.07,2.87,0.07c0.397,0,0.875-0.023,1.435-0.07
	l1.295-0.035c0.047,0,0.07,0.07,0.07,0.21s-0.023,0.21-0.07,0.21c-0.723,0-1.61,0.455-2.66,1.365c-1.05,0.887-1.983,2.007-2.8,3.36
	l-4.55,7.595l-0.735-0.595L98.75,18.955z M87.095,18.15c-0.863-1.353-1.587-2.287-2.17-2.8c-0.56-0.537-1.038-0.805-1.435-0.805
	c-0.07,0-0.105-0.07-0.105-0.21s0.035-0.21,0.105-0.21l1.085,0.035c0.513,0.047,0.875,0.07,1.085,0.07
	c0.817,0,1.995-0.023,3.535-0.07l2.31-0.035c0.047,0,0.07,0.07,0.07,0.21s-0.023,0.21-0.07,0.21c-0.397,0-0.712,0.093-0.945,0.28
	c-0.21,0.187-0.315,0.432-0.315,0.735c0,0.373,0.163,0.817,0.49,1.33l5.04,7.945l-3.36,1.575L87.095,18.15z M96.09,24.835v8.33
	c0,0.723,0.058,1.248,0.175,1.575c0.117,0.327,0.338,0.548,0.665,0.665c0.35,0.117,0.898,0.175,1.645,0.175
	c0.07,0,0.105,0.07,0.105,0.21S98.645,36,98.575,36c-0.77,0-1.377-0.012-1.82-0.035L94.13,35.93l-2.59,0.035
	C91.074,35.988,90.444,36,89.65,36c-0.047,0-0.07-0.07-0.07-0.21s0.023-0.21,0.07-0.21c0.747,0,1.295-0.058,1.645-0.175
	c0.35-0.117,0.583-0.338,0.7-0.665c0.14-0.35,0.21-0.875,0.21-1.575V25.15L96.09,24.835z"/>
	<path style="fill:#FFFFFF;" d="M115.94,33.025c0,0.607,0.047,1.05,0.14,1.33c0.094,0.257,0.269,0.432,0.525,0.525
	c0.28,0.093,0.724,0.14,1.33,0.14h1.19c1.82,0,3.395-0.478,4.725-1.435c1.33-0.98,2.217-2.298,2.66-3.955
	c0-0.047,0.047-0.07,0.14-0.07c0.047,0,0.094,0.023,0.14,0.07c0.07,0.023,0.105,0.047,0.105,0.07
	c-0.21,2.31-0.315,4.235-0.315,5.775c0,0.187-0.046,0.327-0.14,0.42c-0.07,0.07-0.198,0.105-0.385,0.105h-16.52
	c-0.046,0-0.07-0.07-0.07-0.21s0.024-0.21,0.07-0.21c0.747,0,1.284-0.058,1.61-0.175c0.35-0.117,0.584-0.338,0.7-0.665
	c0.14-0.35,0.21-0.875,0.21-1.575V16.96c0-0.7-0.07-1.213-0.21-1.54c-0.116-0.327-0.35-0.548-0.7-0.665
	c-0.35-0.14-0.886-0.21-1.61-0.21c-0.046,0-0.07-0.07-0.07-0.21s0.024-0.21,0.07-0.21l1.785,0.035c1.074,0.047,1.96,0.07,2.66,0.07
	c0.7,0,1.587-0.023,2.66-0.07l1.785-0.035c0.07,0,0.105,0.07,0.105,0.21s-0.035,0.21-0.105,0.21c-0.723,0-1.26,0.07-1.61,0.21
	c-0.35,0.117-0.583,0.35-0.7,0.7c-0.116,0.327-0.175,0.84-0.175,1.54V33.025z M137.568,27.005h10.08l0.245,0.98h-10.85
	L137.568,27.005z M156.153,35.58c0.116,0,0.175,0.07,0.175,0.21S156.269,36,156.153,36c-0.467,0-1.19-0.023-2.17-0.07
	c-1.027-0.047-1.762-0.07-2.205-0.07c-0.584,0-1.295,0.023-2.135,0.07c-0.794,0.047-1.424,0.07-1.89,0.07
	c-0.094,0-0.14-0.07-0.14-0.21s0.046-0.21,0.14-0.21c0.606,0,1.038-0.058,1.295-0.175c0.28-0.14,0.42-0.373,0.42-0.7
	c0-0.397-0.234-1.062-0.7-1.995l-7.105-14.035l1.715-3.01l-6.965,15.365c-0.304,0.677-0.455,1.307-0.455,1.89
	c0,0.84,0.291,1.493,0.875,1.96c0.606,0.467,1.411,0.7,2.415,0.7c0.116,0,0.175,0.07,0.175,0.21S139.364,36,139.248,36
	c-0.42,0-1.027-0.023-1.82-0.07c-0.887-0.047-1.657-0.07-2.31-0.07c-0.63,0-1.389,0.023-2.275,0.07
	c-0.794,0.047-1.435,0.07-1.925,0.07c-0.094,0-0.14-0.07-0.14-0.21s0.046-0.21,0.14-0.21c0.653,0,1.201-0.128,1.645-0.385
	c0.443-0.28,0.886-0.758,1.33-1.435c0.443-0.7,0.968-1.727,1.575-3.08l7.595-16.695c0.046-0.07,0.151-0.105,0.315-0.105
	c0.186,0,0.291,0.035,0.315,0.105l8.75,17.22c0.816,1.657,1.493,2.8,2.03,3.43C155.009,35.265,155.569,35.58,156.153,35.58z
	 M169.065,35.965c-0.023,0.093-0.152,0.14-0.385,0.14c-0.233,0-0.362-0.047-0.385-0.14L159.37,17.03
	c-0.35-0.747-0.642-1.283-0.875-1.61c-0.21-0.327-0.455-0.548-0.735-0.665c-0.257-0.14-0.607-0.21-1.05-0.21
	c-0.07,0-0.105-0.07-0.105-0.21s0.035-0.21,0.105-0.21c0.35,0,0.595,0.012,0.735,0.035c0.467,0.047,1.073,0.07,1.82,0.07
	c1.563,0,2.882-0.023,3.955-0.07c0.303-0.023,0.677-0.035,1.12-0.035c0.07,0,0.105,0.07,0.105,0.21s-0.035,0.21-0.105,0.21
	c-0.583,0-1.003,0.058-1.26,0.175c-0.233,0.117-0.35,0.327-0.35,0.63c0,0.397,0.268,1.167,0.805,2.31l6.615,14.035l-1.47,2.415
	l4.025-10.675l0.665,0.98L169.065,35.965z M188.63,14.125c0.047,0,0.07,0.07,0.07,0.21s-0.023,0.21-0.07,0.21
	c-0.863,0-1.68,0.373-2.45,1.12c-0.747,0.723-1.365,1.727-1.855,3.01l-6.475,17.29c-0.023,0.093-0.152,0.14-0.385,0.14
	s-0.362-0.047-0.385-0.14l-8.925-18.935c-0.397-0.84-0.77-1.458-1.12-1.855c-0.35-0.42-0.723-0.63-1.12-0.63
	c-0.07,0-0.105-0.07-0.105-0.21s0.035-0.21,0.105-0.21c0.233,0,0.502,0.023,0.805,0.07c0.327,0.023,0.782,0.035,1.365,0.035
	c1.33,0,2.438-0.023,3.325-0.07c0.233-0.023,0.537-0.035,0.91-0.035c0.07,0,0.105,0.07,0.105,0.21s-0.035,0.21-0.105,0.21
	c-0.327,0-0.572,0.047-0.735,0.14c-0.14,0.07-0.21,0.21-0.21,0.42c0,0.397,0.315,1.248,0.945,2.555l6.685,14.035L177.5,34.11
	l5.67-15.19c0.28-0.747,0.42-1.423,0.42-2.03c0-0.723-0.187-1.295-0.56-1.715c-0.35-0.42-0.828-0.63-1.435-0.63
	c-0.07,0-0.105-0.07-0.105-0.21s0.035-0.21,0.105-0.21l1.61,0.035c0.84,0.047,1.61,0.07,2.31,0.07c0.467,0,1.003-0.023,1.61-0.07
	L188.63,14.125z M174.735,18.57c0.513-1.33,0.77-2.333,0.77-3.01c0-0.677-0.292-1.015-0.875-1.015c-0.07,0-0.105-0.07-0.105-0.21
	s0.035-0.21,0.105-0.21c0.187,0,0.385,0.023,0.595,0.07c0.233,0.023,0.793,0.035,1.68,0.035c0.397,0,0.875-0.023,1.435-0.07
	l1.295-0.035c0.047,0,0.07,0.07,0.07,0.21s-0.023,0.21-0.07,0.21c-1.563,0-2.858,1.377-3.885,4.13l-2.17,5.74l-0.665-0.98
	L174.735,18.57z"/>
	<g>
		<g>
			<g>
				<polygon style="fill:#B5975B;" points="17.577,14.916 17.577,44.034 11.213,44.034 11.213,46.046 11.213,46.047 19.584,46.047 
				19.584,14.916 			"/>
				<path style="fill:#B5975B;" d="M43.227,29.148l-3.36-12.571c0.843-0.493,1.55-1.408,2.07-2.911
				C37.531,20.7,30.604,9.258,23.238,9.318V7.666l2.713-2.294L22.235,0l-3.716,5.372l2.713,2.294v1.652
				C13.866,9.258,6.939,20.7,2.534,13.667c0.52,1.503,1.227,2.419,2.07,2.911l-3.36,12.571H0c0,3.138,2.537,5.683,5.668,5.683
				s5.668-2.544,5.668-5.683h-1.244L6.855,17.036c4.462-0.329,10.693-6.147,14.377-3.772v34.433H5.668v2.012h33.133v-2.012H23.238
				V13.264c3.684-2.375,9.915,3.442,14.377,3.771l-3.238,12.113h-1.244c0,3.138,2.537,5.683,5.668,5.683
				c3.131,0,5.668-2.544,5.668-5.683H43.227z M5.193,29.149H2.228l2.965-11.093V29.149z M9.108,29.149H6.143V18.056L9.108,29.149z
				 M38.326,29.149h-2.965l2.965-11.093V29.149z M39.277,29.149V18.056l2.965,11.093H39.277z"/>
				<path style="fill:#B5975B;" d="M24.886,14.916L24.886,14.916l0,31.13h8.372v-2.012h-6.365c0-9.706,0-19.412,0-29.118H24.886z"/>
			</g>
		</g>
	</g>
</svg>
